<?xml version="1.0" standalone="yes"?>
<svg xmlns="http://www.w3.org/2000/svg" width="117" height="128">
<path style="fill:#ffffff; stroke:none;" d="M0 0L0 128L117 128L117 0L0 0z"/>
<path style="fill:#000000; stroke:none;" d="M42 33L40.3287 33.0154C39.5374 33.04 38.7419 33.0784 37.9552 33.1698C36.6297 33.3237 35.3166 33.5381 34 33.7539L28 34.7284L24 35.2708L20 35.8449L17.0008 36.1744L16.0046 36.3403L14.0586 36.8935L13.1489 37.3179L12.3225 37.858L11.0864 39.2785L10.6358 41.0548L10.7515 42.0185C10.9979 43.1297 11.6516 44.1059 12.3225 45L13.1489 46C14.075 47.0272 15.0362 48.013 16.0046 49L24.9954 58C25.9612 58.9843 26.9527 59.9528 27.8519 61C28.6468 61.9258 29.4296 62.8897 29.9576 64L30.5926 66L30.6551 68L30.5525 69L30.0802 72L29.2469 77L28.5756 81L27.804 85C27.6144 85.9956 27.414 86.9935 27.2901 88L27.1088 89.9992L27.098 90.9954L27.3218 92.9414L28.0278 94.6782L29.3179 95.929L31.0586 96.4691L32.0193 96.4614L34.0008 96.0116L35 95.6327L37 94.6867L39 93.625L47 89.2978L50 87.7562L52 86.7577L54 85.8117C54.9605 85.4022 55.9544 84.9876 57 84.8503L59 84.8503L61 85.3951C62.3659 85.9455 63.6801 86.5968 65 87.2477L70 89.7531C71.6737 90.5921 73.3477 91.4278 75 92.3086L78 93.9961L79 94.5602L81 95.5818L82.9954 96.2924L84.9414 96.4684L86.6821 95.929L87.3966 95.3812L88.3958 93.8511L88.6782 92.9414L88.8372 91.9807L88.8912 89.9992L88.713 88L88.4097 86L87.4136 80L86.5864 75L86.0802 72L85.6096 69C85.4412 67.6665 85.2991 66.3134 85.6929 65C86.0276 63.8836 86.6253 62.924 87.3218 62C88.1314 60.9258 89.092 59.9697 90.0193 59L93 56L96.9961 52.0394L99.9097 49.2855L101.695 47.5756L102.517 46.7145L103.963 44.9105L105.003 42.99L105.379 41.054L104.914 39.2785L103.677 37.858L102.851 37.3179L101.941 36.8935L99.9954 36.3403L98.9992 36.1744L96 35.8449L92 35.2708L88 34.7284L82 33.7539C80.6834 33.5381 79.3703 33.3236 78.0448 33.1698C77.258 33.0784 76.4626 33.04 75.6713 33.0154L74 33L73.5741 31.3287L73.0285 29.8395C72.4924 28.54 71.8853 27.2728 71.2932 25.9985L69.3989 22L67.8611 19L66.4244 16C65.8138 14.6614 65.2348 13.3093 64.5602 12.0008L64.037 11.0046L63.4853 10.0193L62.2461 8.14892L61.5293 7.32253L60.7377 6.62268L59.8742 6.08642L58.0247 5.6358L56.2122 6.08642L55.3904 6.62268L54.6373 7.32253L53.3519 9.05864L52.7963 10.0193L52.2623 11.0046L51.7569 12.0008L49.7531 16L46.7531 22L44.7569 25.9985C44.1323 27.2663 43.52 28.536 42.9722 29.8395L42.4259 31.3287L42 33z"/>
<path style="fill:#ffffff; stroke:none;" d="M58 20L56.9892 21.6713L56.7423 22.159L56.1883 23.1605L54.7515 26.0046L51.7523 32L50.7377 33.9992L50.2037 34.9954L49.6481 35.9815L49.034 36.9452L48.3627 37.8665L46.787 39.4861C45.6913 40.391 44.3749 41.0772 42.9961 41.4313L41.9992 41.6705C40.6724 41.9175 39.3351 42.0773 38 42.2708L34 42.8449L31.0015 43.1551L27.1605 43.7137L26.159 43.8326L25.6713 43.902L24 44L25.0826 45.5725L25.5023 45.9877L26.2816 46.8596C27.3469 47.9045 28.4812 48.8774 29.5802 49.8858C31.4157 51.5699 33.2477 53.2676 34.9992 55.0394C35.9478 55.9988 36.9097 56.9574 37.7677 58.0008C38.5273 58.9244 39.2558 59.8936 39.7315 61L40.0872 62L40.3326 64C40.3434 65.0117 40.1355 66.006 39.9846 67L39.7994 68L39.4244 70L38.9198 73L37.7531 79.9552L37 84L38.6713 83.4599L39.159 83.2153L40.1605 82.7809L41.0448 82.321L44.0015 80.777L50 77.7531C51.3266 77.092 52.6418 76.396 54 75.8009C55.2708 75.2441 56.5893 74.6973 58 74.6651L60 74.9198L61 75.2562L62 75.696L64 76.7076L66 77.7423L71 80.2469L75.8395 82.6512L76.841 83.0988L77.3287 83.3395L79 84L78.8171 82.3287L78.7238 81.841L78.571 80.8395L78.2461 78.9753L77.5756 75L76.6111 70L76.0965 67L75.9637 66.0008L75.8148 64.0147L75.8472 63.0394L76.2593 61.1736C76.735 59.903 77.605 58.8599 78.5224 57.885L79.2909 57.1196L81.7546 54.7894L85.169 51.561L87.956 48.9352L89.6798 47.1458L90.483 46.1551L90.9136 45.6705L92 44L90.3287 43.902L89.841 43.8326L88.8395 43.7137L84.9985 43.1551L82 42.8449L78 42.2708C76.6649 42.0773 75.3276 41.9175 74.0008 41.6705L73.0039 41.4313C71.6251 41.0772 70.3087 40.391 69.213 39.4861C67.1529 37.785 65.945 35.3348 64.76 33C63.7566 31.0229 62.8553 28.9985 61.8951 27.0008C61.1377 25.425 60.3456 23.8662 59.5278 22.321L59.0463 21.517L58.8248 21.0864L58 20z"/>
<path style="fill:#000000; stroke:none;" d="M6 123L7.66744 122.98L9.11651 122.852L9.93596 122.682L11.571 121.972L12.821 120.682L13.5664 118.941L13.8912 116.995C13.9842 115.663 13.9922 114.335 13.9992 113L14 105L14 77L14 71L13.9961 67C13.9822 65.9982 13.961 65.0044 13.8912 64.0046L13.7716 63.0193L13.2577 61.1481L12.2577 59.6042L11.5671 59.0324L9.91049 58.3765L8.13272 58.3765L7.31404 58.6227L6.60262 59.0324L5.60339 60.3179L5.3179 61.1481L5.14815 62.0586L5.01929 64.0046L5 67L5 71L5 81L5 98L5 110L5.00077 114L5.04012 116.995L5.17824 118.955L5.47839 120.841L5.5679 121.329L6 123M111 123L111.432 121.329L111.522 120.841L111.822 118.955L111.96 116.995L112 113L112 108L112 90L112 72L111.999 67L111.96 64.0046L111.822 62.0448L111.522 60.159L111.432 59.6713L111 58L109.333 58.0201L107.883 58.1481L107.064 58.3179L105.429 59.0278L104.179 60.3179L103.434 62.0586C103.151 63.0038 103.096 64.0227 103.044 65.0008C102.973 66.3308 103.002 67.6687 103 69L103 80L103 106L103 111L103.004 114C103.018 115.002 103.039 115.996 103.109 116.995L103.434 118.941L104.179 120.682L105.429 121.972L107.064 122.682L107.883 122.852L109.333 122.98L111 123M55.6026 91.0324C54.9383 91.5444 54.4929 92.3342 54.3179 93.1481L54.1481 94.0586L54.0586 95.0193L54.0008 98L54 103L54 112L54.0193 116.995L54.1481 118.941L54.3179 119.852L55.0278 121.396L55.6026 121.968L56.3133 122.377L57.1289 122.623L58 122.704L58.8711 122.623L60.3974 121.968C61.0617 121.456 61.5071 120.666 61.6821 119.852L61.8519 118.941L61.9414 117.981L61.9992 115L62 110L62 101L61.9807 96.0046L61.8519 94.0586L61.6821 93.1481L60.9722 91.6042L60.3974 91.0324L59.6867 90.6227L58.8711 90.3765L58 90.2963L57.1289 90.3765L55.6026 91.0324M31.314 102.047L30.0278 103.319L29.6034 104.148L29.1481 106.019L29.0586 107.005L29.0046 109L29.0008 114L29.0586 116.995L29.1481 117.981L29.6034 119.852L30.6026 121.392L31.314 121.953L32.1327 122.338L33.0147 122.534L33.9105 122.534L35.5671 121.953L36.821 120.681L37.2577 119.852L37.7716 117.981L37.8912 116.995L37.9846 115L37.9992 111C37.9927 109.665 37.9842 108.337 37.8912 107.005L37.5664 105.059L36.821 103.319L36.2577 102.608L34.7762 101.662L33.9105 101.466L33.0147 101.466L31.314 102.047M80.6026 102.032L79.6034 103.318L79.3179 104.148L79.1481 105.059L79.0586 106.019L79.0193 107.005L79 110L79.0008 115L79.0586 117.981L79.3179 119.852L80.0278 121.396L80.6026 121.968L81.3133 122.377L82.1289 122.623L83 122.704L83.8711 122.623L85.3974 121.968L86.3966 120.682L86.6821 119.852L86.8519 118.941L86.9414 117.981L86.9807 116.995L87 114L86.9992 109L86.9414 106.019L86.6821 104.148L85.9722 102.604L85.3974 102.032L84.6867 101.623L83.8711 101.377L83 101.296L82.1289 101.377L80.6026 102.032z"/>
</svg>
